<svg width="180" height="337" viewBox="0 0 180 337" fill="none" xmlns="http://www.w3.org/2000/svg">
<g opacity="0.05">
<path d="M100.411 49.634H134.215C134.878 49.633 135.526 49.3713 136.083 48.88C136.64 48.3887 137.082 47.6885 137.357 46.8629L149.949 8.91644L125.852 18.1391L117.316 0L108.774 18.1391L84.6772 8.91644L97.2722 46.8629C97.5467 47.688 97.9884 48.3879 98.5449 48.8791C99.1014 49.3704 99.7492 49.6324 100.411 49.634ZM111.487 29.9516L117.316 18.4515L123.14 29.9516L136.371 27.1117L133.371 36.1719C132.965 37.3882 132.313 38.4193 131.492 39.1426C130.67 39.866 129.715 40.251 128.738 40.2521H105.88C104.903 40.2512 103.948 39.8662 103.127 39.1428C102.306 38.4194 101.654 37.3882 101.249 36.1719L98.2463 27.1117L111.487 29.9516Z" fill="#D28721"/>
<path d="M136.307 89.15C135.992 88.6675 135.607 88.2796 135.177 88.0107C134.747 87.7419 134.281 87.5979 133.809 87.5879H125.106C124.508 87.5879 124.209 88.747 124.631 89.4249L129.807 96.8135C129.98 97.1005 130.195 97.333 130.439 97.4948C130.684 97.6566 130.951 97.7439 131.222 97.7507H140.142C140.942 97.7507 141.326 96.1668 140.737 95.2952L136.307 89.15Z" fill="#D28721"/>
<path d="M173.221 123.728L177.773 100.921L179.826 90.0428C180.034 88.9402 180.056 87.7868 179.889 86.6711C179.721 85.5554 179.37 84.5069 178.861 83.606C178.352 82.7052 177.699 81.9759 176.953 81.474C176.206 80.9721 175.385 80.7111 174.554 80.7108H156.096C155.179 80.711 154.272 80.4513 153.432 79.9481C152.591 79.4448 151.836 78.7089 151.214 77.7865L141.341 63.1526L141.322 63.112C140.931 62.3343 140.459 61.6386 139.922 61.0469C138.632 59.6131 137.02 58.832 135.359 58.835H99.1117C97.3121 59.1811 95.5427 59.7756 93.8305 60.6095C83.04 67.0017 80.0766 81.0201 80.0766 81.0201C71.2343 86.3562 70.7849 106.882 70.7849 106.882C70.7849 106.882 64.7441 111.709 63.1084 127.768C63.1084 127.768 63.1084 127.861 63.0856 128.036C63.0172 128.721 62.9556 129.42 62.9054 130.145C62.4605 136.547 63.0696 141.755 64.0848 145.869C65.0293 150.471 66.6832 155.086 69.5211 158.535H77.0334L52.2335 158.61C51.321 158.648 50.3149 158.654 49.1811 158.632C48.8093 158.632 48.4397 158.632 48.0724 158.632H47.7394C31.8867 158.76 20.6582 166.567 14.079 173.003L13.9375 173.144L13.657 173.422C13.657 173.444 13.657 173.469 13.641 173.494C11.3082 175.9 9.1195 178.558 7.09598 181.442C3.21751 175.34 -1.96327 171.061 -7.71412 169.211C-11.7855 167.909 -16.0151 167.839 -20.1084 169.004C-24.2272 170.191 -28.1036 172.609 -31.46 176.087C-31.8798 176.527 -32.2995 176.987 -32.701 177.458L-32.7467 177.508L-54.4759 206.657C-54.6539 206.704 -54.8341 206.757 -55.0257 206.814H-55.0668L-62.2163 208.107L-62.2939 208.132C-66.4346 209.431 -70.374 211.726 -73.9285 214.912C-77.4363 218.099 -80.5248 222.077 -83.0627 226.677C-85.3235 230.739 -87.2398 235.591 -88.7659 241.13C-89.9788 245.621 -90.9032 250.247 -91.5286 254.958C-91.9672 258.176 -92.2764 261.425 -92.4548 264.69C-92.4548 264.915 -92.4799 265.14 -92.489 265.371L-93 269.026L-92.8517 268.983L-92.8996 269.245L-90.4313 268.814C-85.6565 267.98 -73.9102 265.424 -67.7941 259.638L-67.6207 259.513C-63.5616 256.557 -59.9402 252.592 -56.942 247.819C-53.9031 242.961 -51.5172 237.403 -49.8951 231.404C-49.4331 229.737 -49.0573 228.027 -48.7704 226.287L-48.5035 224.384L-48.3598 223.759C-47.8203 221.47 -47.383 219.139 -47.0503 216.777L-26.1583 188.162C-24.3182 185.981 -22.1769 184.329 -19.8616 183.304C-17.5464 182.278 -15.1042 181.899 -12.6801 182.191C-10.2561 182.482 -7.89941 183.437 -5.75002 185C-3.60062 186.562 -1.70229 188.7 -0.167633 191.286L-0.281693 191.433L-0.345581 191.558L-0.487015 191.711C-0.57827 191.817 -0.680916 191.936 -0.763046 192.045L-6.39098 199.753L-13.4128 208.944L-15.7146 212.025L-23.6808 223.16H-23.5964L-42.6748 249.762C-44.2348 251.936 -45.1089 254.862 -45.109 257.91V324.381L-44.1964 324.575H-44.128H-89.902C-90.309 324.577 -90.7117 324.69 -91.0871 324.905C-91.4624 325.121 -91.803 325.436 -92.0894 325.832C-92.3759 326.228 -92.6025 326.697 -92.7564 327.213C-92.9103 327.73 -92.9884 328.282 -92.9863 328.839V332.476C-92.9845 333.598 -92.6586 334.672 -92.0797 335.466C-91.5009 336.259 -90.7163 336.706 -89.8975 336.709H176.525C177.344 336.706 178.129 336.259 178.708 335.466C179.287 334.673 179.614 333.598 179.616 332.476V328.839C179.614 327.718 179.287 326.643 178.708 325.85C178.129 325.057 177.344 324.609 176.525 324.606H133.742L133.68 324.109C130.32 304.699 116.326 301.343 116.326 301.343C116.269 301.19 116.21 301.031 116.157 300.887L116.144 300.846L116.089 300.64L116.039 300.306V260.628L116.066 260.606V259.357L116.144 258.982L116.244 258.751C116.262 258.71 116.287 258.669 116.306 258.629C119.868 258.214 123.386 257.271 126.8 255.817C127.035 255.67 127.263 255.503 127.484 255.317V255.502C127.587 255.452 127.685 255.402 127.787 255.358L144.062 277.602C144.315 282.204 145.05 286.975 146.54 291.149C147.827 294.808 149.725 298.001 152.081 300.468C153.677 302.084 155.447 303.349 157.328 304.217C158.213 304.551 159.113 304.806 160.022 304.983V305.227C162.55 305.955 165.472 306.229 168.862 305.892V283.473L168.905 283.616V251.09L151.207 226.852C155.062 222.144 160.086 212.534 159.112 194.948C159.112 194.948 170.044 173.231 155.959 147.05L171.075 128.477C172.108 127.208 172.853 125.56 173.221 123.728ZM-58.2013 222.903C-59.3435 226.753 -60.8105 230.406 -62.5722 233.788C-65.4371 239.287 -69.0842 243.937 -73.2943 247.457C-75.7705 249.504 -78.4125 251.149 -81.167 252.359C-80.9001 251.256 -80.5989 250.197 -80.3138 249.234C-79.1637 245.299 -77.6847 241.559 -75.9063 238.09C-73.0767 232.534 -69.4232 227.857 -65.1843 224.366C-62.7216 222.376 -60.0847 220.823 -57.3367 219.742C-57.6058 220.86 -57.9115 221.932 -58.2013 222.903ZM79.7207 102.515C80.0036 100.715 80.2591 99.6404 80.2591 99.6404L80.5717 100.931C81.5965 105.187 82.979 109.265 84.6916 113.084C86.3048 116.642 88.1758 119.969 90.2762 123.013C92.3468 125.996 94.5739 128.769 96.9399 131.308C99.2828 133.844 101.731 136.197 104.21 138.459C106.882 140.893 109.599 143.226 112.3 145.595L113.598 146.738L113.758 146.879C118.42 150.999 123.093 155.127 127.566 159.638C132.081 164.187 136.402 169.139 140.241 174.744C142.47 178.008 144.621 181.476 146.355 185.269C146.355 185.269 151.451 197.788 147.406 210.781C144.642 190.424 121.099 165.89 97.1634 146.547C77.7429 130.854 78.6326 110.044 79.7207 102.515ZM9.45713 324.603C9.43888 324.437 9.41378 324.272 9.39324 324.106C6.72643 308.691 -2.64511 303.405 -6.39098 301.877V268.301L15.2333 264.459L9.19021 272.735C7.63763 274.867 6.76573 277.755 6.76573 280.766C6.76573 283.776 7.63763 286.664 9.19021 288.796L35.3337 324.603H9.45713ZM44.4361 324.603L19.5701 290.549L17.5739 287.618C16.7141 286.364 16.243 284.702 16.2596 282.981C16.2762 281.26 16.7792 279.616 17.6629 278.393L21.5228 273.007L32.5072 257.698L32.708 257.454L33.1642 257.164H52.6487L50.8237 259.488L50.851 259.579L44.9904 266.914L38.6895 274.928L34.5649 280.58C34.3926 280.804 34.2545 281.072 34.1588 281.37C34.0631 281.668 34.0116 281.989 34.0073 282.315C34.0031 282.64 34.0462 282.963 34.1341 283.266C34.222 283.568 34.3529 283.843 34.5193 284.076L46.8086 300.909L46.8314 300.946C47.2535 301.615 47.6778 302.271 48.1112 302.933L48.3394 303.268L55.1444 312.587C55.1695 312.587 55.1923 312.625 55.2174 312.644H58.142H58.19C62.2963 312.956 67.0596 314.365 69.7675 318.961C70.6982 320.545 71.5651 322.485 71.5651 324.584L44.4361 324.603ZM79.1869 319.114C78.6445 316.967 77.8759 314.939 76.9056 313.096C70.5614 302.534 58.742 302.655 58.742 302.655L44.8034 283.569C44.7598 283.508 44.7187 283.443 44.6802 283.376C43.6718 281.764 44.6368 280.052 44.6368 280.052L46.0877 278.065C46.1819 277.905 46.2824 277.753 46.3888 277.608L48.2139 275.15L61.345 257.173H79.1892L79.1869 319.114ZM125.105 225.272C125.105 225.4 125.105 225.796 125.105 225.796L125.086 226.568H125.061C124.887 230.401 123.958 234.097 122.374 237.266C120.79 240.434 118.61 242.957 116.064 244.567V236.444C116.064 234.921 115.622 233.46 114.836 232.383C114.049 231.306 112.983 230.701 111.871 230.701C110.759 230.701 109.692 231.306 108.906 232.383C108.12 233.46 107.678 234.921 107.678 236.444V268.783C107.753 268.701 107.826 268.62 107.906 268.533C107.906 271.344 107.906 274.156 107.906 276.987V300.821C107.906 302.593 107.865 304.377 107.906 306.133V310.538H108.887L108.946 310.653C112.336 311.138 122.883 313.531 123.421 324.556H87.3174V219.27C87.3402 218.93 87.3402 218.588 87.3174 218.248V217.789C87.3317 216.249 86.9051 214.762 86.1289 213.646C85.5615 212.863 84.837 212.329 84.0473 212.11C83.2577 211.892 82.4385 212 81.6937 212.42C80.949 212.841 80.3122 213.555 79.8643 214.472C79.4163 215.389 79.1774 216.467 79.1778 217.57V246.001H39.1868L58.9154 218.976C60.1906 217.233 60.3846 214.268 59.2074 212.347C57.8386 210.132 55.4113 210.16 53.949 212.162L31.435 242.998C25.4033 251.256 17.469 253.018 15.9223 253.308L-12.1079 257.767C-12.4474 257.82 -12.7769 257.959 -13.0797 258.176C-14.9047 258.816 -15.361 263.125 -15.361 263.125V310.691C-11.971 311.175 -1.42463 313.568 -0.886246 324.594H-36.9762V264.515C-36.9794 260.218 -35.7506 256.092 -33.5542 253.024L-8.68823 218.345C-5.42599 213.887 -2.09533 209.519 1.18972 205.089C2.89764 202.786 4.5881 200.457 6.26105 198.103C7.75985 195.985 9.21301 193.817 10.7803 191.792C13.5637 188.179 16.6038 184.956 19.8552 182.17C23.0352 179.465 26.4141 177.226 29.9362 175.49C33.5654 173.719 37.3135 172.443 41.1259 171.682C41.6164 171.582 42.1114 171.488 42.6065 171.407H42.6817H77.1064L77.2592 171.432C80.4751 172.148 83.5861 173.566 86.4733 175.634C87.9262 176.688 89.32 177.888 90.6435 179.224C92.1446 180.73 93.6655 182.2 95.2061 183.635C96.9239 185.253 98.6577 186.841 100.387 188.431L100.533 188.565C106.289 193.854 112.063 199.166 117.314 205.386C118.799 207.096 120.148 209.016 121.34 211.113C122.57 213.082 123.532 215.338 124.178 217.773C124.494 218.961 124.732 220.186 124.888 221.432C125.076 222.694 125.149 223.984 125.105 225.272ZM130.977 237.244L131.093 236.422C132.14 229.408 132.101 222.122 130.436 215.296C128.971 209.279 126.364 204.074 123.104 199.609C121.24 197.105 119.268 194.754 117.2 192.57L117.054 192.414C122.137 197.832 111.704 186.703 116.49 191.811C111.029 186.022 105.123 180.795 99.4082 175.743L99.2896 175.637C93.9126 170.879 88.4649 166.174 83.4027 160.794C81.9932 159.311 80.6394 157.731 79.3466 156.061C77.891 153.811 76.5668 151.409 75.3863 148.875C69.804 136.234 72.3476 124.681 72.3476 124.681L72.6282 125.584L73.7688 128.536C76.3807 134.742 79.6435 140.39 83.4529 145.298C87.1189 150.081 91.1842 154.252 95.3681 158.135C99.7755 162.228 104.322 166.018 108.78 170.007C113.171 173.928 117.494 178.005 121.594 182.482C126.065 187.369 130.297 192.72 133.979 198.728C134.472 199.532 134.952 200.352 135.421 201.187C146.045 228.805 130.981 237.244 130.981 237.244H130.977ZM160.022 256.079V293.223C158.621 293.223 157.335 292.224 156.244 291.102C155.331 290.165 154.546 289.013 153.926 287.7C152.717 285.169 152.049 282.207 151.666 279.264C151.482 277.828 151.361 276.378 151.303 274.922V274.856V270.851C151.289 270.816 151.278 270.785 151.262 270.751L144.457 261.434L144.213 261.122C143.729 260.528 143.25 259.941 142.762 259.369L142.734 259.338L135.863 249.931C140.921 245.348 143.818 239.933 145.397 236.031L160.022 256.079ZM153.064 180.786C149.241 167.352 137.027 156.773 137.027 156.773C136.382 156.079 135.733 155.393 135.081 154.714C133.853 153.443 132.617 152.193 131.36 150.984V151.009L130.507 150.172C126.357 146.11 122.066 142.292 117.761 138.574C116.484 137.472 115.197 136.388 113.91 135.31L113.612 135.053C108.168 130.483 102.673 125.874 97.8706 120.079C93.8989 115.29 90.388 109.538 88.547 102.655C88.1992 101.353 87.9142 100.022 87.6938 98.6688C86.0079 85.4877 92.9818 77.2897 92.9818 77.2897L92.9362 78.0458C92.6205 82.7371 92.9297 87.4679 93.8487 92.0079C94.7005 96.0013 96.047 99.7646 97.8296 103.133C99.6229 106.484 101.699 109.534 104.014 112.219C106.39 114.976 108.883 117.539 111.481 119.892C114.875 123.016 118.368 125.946 121.883 128.821L123.309 129.986L123.355 130.023C128.78 134.444 134.266 138.827 139.21 144.236C140.414 145.551 141.587 146.932 142.714 148.375C143.93 149.572 151.255 157.123 153.539 167.955C153.518 167.964 154.513 173.097 153.069 180.795L153.064 180.786ZM168.641 95.5821L166.09 107.907L165.778 109.422H165.456C164.976 108.436 164.382 107.564 163.697 106.839C162.31 105.364 160.603 104.565 158.847 104.567C158.774 104.567 158.703 104.567 158.633 104.567C156.566 104.642 154.602 105.819 153.16 107.848C151.717 109.876 150.91 112.596 150.911 115.427C150.911 115.79 150.924 116.149 150.949 116.502C151.023 117.504 151.198 118.487 151.469 119.423C151.469 119.423 151.483 119.46 151.495 119.485V119.51L151.522 119.579L151.54 119.62C151.54 119.648 151.563 119.676 151.577 119.704L151.597 119.754L151.652 119.876L151.666 119.91L151.748 120.088C151.757 120.105 151.765 120.123 151.773 120.142L151.846 120.288L151.882 120.363C151.905 120.413 151.93 120.463 151.958 120.513L151.999 120.595L152.09 120.766L152.129 120.835C152.174 120.919 152.22 121.004 152.27 121.088L152.298 121.135L152.428 121.354C152.444 121.385 152.464 121.413 152.482 121.444C152.501 121.476 152.56 121.569 152.599 121.632L152.663 121.732C152.707 121.794 152.75 121.86 152.793 121.929L152.854 122.019L153.05 122.294C153.119 122.391 153.192 122.488 153.279 122.582L153.349 122.672C153.402 122.738 153.456 122.806 153.514 122.872L153.6 122.975C153.655 123.041 153.71 123.106 153.767 123.169L153.856 123.266L154.066 123.491L154.123 123.55C154.214 123.641 154.307 123.731 154.405 123.822L154.481 123.891C154.554 123.956 154.627 124.022 154.709 124.084L154.816 124.175C154.885 124.231 154.955 124.287 155.028 124.34L155.14 124.428C155.219 124.488 155.295 124.545 155.368 124.597L155.464 124.662C155.576 124.737 155.692 124.809 155.811 124.881L155.872 124.912C155.97 124.968 156.071 125.025 156.173 125.075L156.299 125.137L156.557 125.253L156.696 125.312L156.97 125.412L157.1 125.459C157.227 125.5 157.357 125.537 157.492 125.571H157.515C158.538 125.82 159.585 125.82 160.608 125.571C160.653 125.57 160.697 125.587 160.735 125.62C160.772 125.653 160.802 125.701 160.82 125.756C160.839 125.812 160.845 125.874 160.837 125.935C160.83 125.995 160.81 126.051 160.779 126.096L158.163 128.977L150.178 137.765L145.871 134.232C145.693 134.154 145.518 134.069 145.344 133.966C144.769 133.59 144.223 133.133 143.715 132.604C143.229 132.145 142.734 131.698 142.239 131.251L138.487 128.174L138.535 128.143C137.499 127.327 136.44 126.562 135.423 125.712L135.27 125.59C134.403 124.909 133.573 124.128 132.724 123.403C131.875 122.678 131.025 121.96 130.169 121.244C128.54 119.882 126.904 118.534 125.26 117.199C125.26 117.199 122.917 115.277 122.413 114.871L122.043 114.559C120.467 113.271 118.849 111.937 117.223 110.55C115.763 109.197 114.221 108.023 112.888 106.426C110.443 103.912 108.214 101.027 106.243 97.8252C103.585 93.6075 101.322 88.8525 99.9055 83.61C98.9849 80.1694 98.451 76.5572 98.3223 72.8971H132.453C132.954 72.8954 133.443 73.106 133.853 73.5L133.653 72.8752L146.362 91.0144C146.981 91.9012 147.724 92.6074 148.547 93.0906C149.371 93.5739 150.257 93.8241 151.152 93.8262H167.669C167.827 93.8191 167.984 93.864 168.128 93.9574C168.271 94.0507 168.395 94.1897 168.491 94.3627C168.586 94.5356 168.65 94.7374 168.677 94.9513C168.704 95.1651 168.693 95.3846 168.645 95.5914L168.641 95.5821Z" fill="#D28721"/>
</g>
</svg>
