<svg version="1.2" baseProfile="tiny-ps" xmlns="http://www.w3.org/2000/svg" viewBox="0 0 18 18" width="18" height="18">
	<title>image</title>
	<style>
		tspan { white-space:pre }
		.shp0 { fill: #000000 } 
	</style>
	<g id="Layer" style="opacity: 0.502">
		<path id="Layer" fill-rule="evenodd" class="shp0" d="M18 8.66C18 8.66 14.81 14.25 9.01 14.25C3.63 14.25 0 8.66 0 8.66C0 8.66 3.33 3.75 9.01 3.75C14.78 3.75 18 8.66 18 8.66ZM12.75 9C12.75 6.93 11.07 5.25 9 5.25C6.93 5.25 5.25 6.93 5.25 9C5.25 11.07 6.93 12.75 9 12.75C11.07 12.75 12.75 11.07 12.75 9ZM11.25 9C11.25 10.24 10.24 11.25 9 11.25C7.76 11.25 6.75 10.24 6.75 9C6.75 7.76 7.76 6.75 9 6.75C10.24 6.75 11.25 7.76 11.25 9Z" />
	</g>
</svg>