<svg width="20" height="20" viewBox="0 0 20 20" fill="none" xmlns="http://www.w3.org/2000/svg">
<g clip-path="url(#clip0)">
<path d="M19.9805 14.1199C19.9336 15.1826 19.7618 15.9132 19.5156 16.5463C19.2616 17.2182 18.8709 17.8199 18.359 18.32C17.8589 18.8279 17.2533 19.2226 16.5891 19.4726C15.9524 19.7187 15.2257 19.8906 14.163 19.9374C13.0924 19.9882 12.7525 20 10.0371 20C7.32174 20 6.98186 19.9882 5.91521 19.9414C4.85253 19.8945 4.12195 19.7225 3.48905 19.4765C2.81692 19.2226 2.2153 18.8319 1.71517 18.32C1.20726 17.8199 0.812743 17.2143 0.562603 16.5501C0.316431 15.9132 0.144583 15.1866 0.0977295 14.1239C0.0469078 13.0533 0.0351562 12.7134 0.0351562 9.99805C0.0351562 7.28267 0.0469078 6.94279 0.0937614 5.87615C0.140615 4.81347 0.312615 4.08289 0.558788 3.44983C0.812743 2.77786 1.20726 2.17624 1.71517 1.67611C2.2153 1.1682 2.82089 0.773529 3.48508 0.52354C4.12195 0.277369 4.84857 0.10552 5.9114 0.0586662C6.97789 0.0116615 7.31792 6.10352e-05 10.0333 6.10352e-05C12.7487 6.10352e-05 13.0885 0.0116615 14.1552 0.0586662C15.2179 0.10552 15.9485 0.277369 16.5814 0.52354C17.9255 1.0432 18.9881 2.10588 19.5078 3.44983C19.7538 4.08671 19.9258 4.81347 19.9727 5.87615C20.0195 6.94279 20.0313 7.28267 20.0313 9.99805C20.0313 12.7134 20.0273 13.0533 19.9805 14.1199ZM18.1794 5.95429C18.1364 4.97754 17.9723 4.45009 17.8356 4.09846C17.4995 3.22716 16.808 2.53565 15.9367 2.19959C15.5851 2.06284 15.0538 1.89878 14.0809 1.85589C13.026 1.80889 12.7096 1.79729 10.0411 1.79729C7.37256 1.79729 7.05221 1.80889 6.00113 1.85589C5.02438 1.89878 4.49693 2.06284 4.1453 2.19959C3.71172 2.35984 3.31705 2.61379 2.9967 2.94589C2.66461 3.2702 2.41065 3.6609 2.2504 4.09449C2.11366 4.44612 1.94959 4.97754 1.90671 5.95032C1.8597 7.00521 1.8481 7.32174 1.8481 9.99026C1.8481 12.6588 1.8597 12.9791 1.90671 14.0301C1.94959 15.0068 2.11366 15.5343 2.2504 15.8859C2.41065 16.3196 2.66461 16.7141 3.00067 17.0346C3.32483 17.3667 3.71553 17.6207 4.14927 17.7808C4.5009 17.9175 5.03232 18.0816 6.0051 18.1246C7.06 18.1715 7.37652 18.1832 10.0449 18.1832C12.7174 18.1832 13.0338 18.1715 14.0848 18.1246C15.0616 18.0816 15.589 17.9175 15.9407 17.7808C16.3743 17.6207 16.7689 17.3667 17.0893 17.0346C17.4214 16.7103 17.6753 16.3196 17.8356 15.8859C17.9723 15.5343 18.1364 15.003 18.1794 14.0301C18.2263 12.9752 18.238 12.6588 18.238 9.99026C18.238 7.32174 18.2263 7.00918 18.1794 5.95429Z" fill="white"/>
<path d="M10.0371 15.1357C7.20074 15.1357 4.89941 12.8346 4.89941 9.99802C4.89941 7.16147 7.20074 4.8603 10.0371 4.8603C12.8737 4.8603 15.1749 7.16147 15.1749 9.99802C15.1749 12.8346 12.8737 15.1357 10.0371 15.1357ZM10.0371 6.66531C8.19702 6.66531 6.70442 8.15776 6.70442 9.99802C6.70442 11.8383 8.19702 13.3307 10.0371 13.3307C11.8774 13.3307 13.3698 11.8383 13.3698 9.99802C13.3698 8.15776 11.8774 6.66531 10.0371 6.66531Z" fill="white"/>
<path d="M16.5775 15.3387C16.5775 14.6763 16.0404 14.1392 15.3779 14.1392C14.7155 14.1392 14.1785 14.6763 14.1785 15.3387C14.1785 16.0012 14.7155 16.5381 15.3779 16.5381C16.0404 16.5381 16.5775 16.0012 16.5775 15.3387Z" fill="white"/>
</g>
<defs>
<clipPath id="clip0">
<rect width="20" height="20" fill="white" transform="matrix(1 0 0 -1 0 20)"/>
</clipPath>
</defs>
</svg>
