<svg width="332" height="297" viewBox="0 0 332 297" fill="none" xmlns="http://www.w3.org/2000/svg">
<mask id="mask0" mask-type="alpha" maskUnits="userSpaceOnUse" x="0" y="0" width="332" height="297">
<rect width="332" height="297" fill="#0D1124"/>
</mask>
<g mask="url(#mask0)">
<g opacity="0.05">
<path d="M137.588 73.634H103.784C103.122 73.633 102.474 73.3713 101.917 72.88C101.36 72.3887 100.918 71.6885 100.643 70.8629L88.0504 32.9164L112.148 42.1391L120.684 24L129.225 42.1391L153.323 32.9164L140.728 70.8629C140.453 71.688 140.011 72.3879 139.455 72.8791C138.898 73.3704 138.251 73.6324 137.588 73.634ZM126.513 53.9516L120.684 42.4515L114.86 53.9516L101.629 51.1117L104.628 60.1719C105.034 61.3882 105.687 62.4193 106.508 63.1426C107.329 63.866 108.285 64.251 109.262 64.2521H132.12C133.097 64.2512 134.052 63.8662 134.873 63.1428C135.694 62.4194 136.346 61.3882 136.751 60.1719L139.753 51.1117L126.513 53.9516Z" fill="#D28721"/>
<path d="M101.694 113.15C102.009 112.667 102.393 112.28 102.823 112.011C103.253 111.742 103.719 111.598 104.191 111.588H112.895C113.492 111.588 113.791 112.747 113.369 113.425L108.193 120.813C108.021 121.101 107.805 121.333 107.561 121.495C107.317 121.657 107.05 121.744 106.778 121.751H97.8587C97.0579 121.751 96.6747 120.167 97.2632 119.295L101.694 113.15Z" fill="#D28721"/>
<path d="M64.7785 147.728L60.2273 124.921L58.1742 114.043C57.9656 112.94 57.9441 111.787 58.1113 110.671C58.2785 109.555 58.6301 108.507 59.139 107.606C59.6479 106.705 60.3008 105.976 61.0473 105.474C61.7939 104.972 62.6145 104.711 63.4462 104.711H81.9041C82.8212 104.711 83.7283 104.451 84.5685 103.948C85.4087 103.445 86.1637 102.709 86.7861 101.787L96.6595 87.1526L96.6777 87.112C97.0691 86.3343 97.5409 85.6386 98.0784 85.0469C99.3684 83.6131 100.98 82.832 102.641 82.835H138.888C140.688 83.1811 142.457 83.7756 144.17 84.6095C154.96 91.0017 157.923 105.02 157.923 105.02C166.766 110.356 167.215 130.882 167.215 130.882C167.215 130.882 173.256 135.709 174.892 151.768C174.892 151.768 174.892 151.861 174.914 152.036C174.983 152.721 175.044 153.42 175.095 154.145C175.539 160.547 174.93 165.755 173.915 169.869C172.971 174.471 171.317 179.086 168.479 182.535H160.967L185.767 182.61C186.679 182.648 187.685 182.654 188.819 182.632C189.191 182.632 189.56 182.632 189.928 182.632H190.261C206.113 182.76 217.342 190.567 223.921 197.003L224.062 197.144L224.343 197.422C224.343 197.444 224.343 197.469 224.359 197.494C226.692 199.9 228.881 202.558 230.904 205.442C234.782 199.34 239.963 195.061 245.714 193.211C249.786 191.909 254.015 191.839 258.108 193.004C262.227 194.191 266.104 196.609 269.46 200.087C269.88 200.527 270.3 200.987 270.701 201.458L270.747 201.508L292.476 230.657C292.654 230.704 292.834 230.757 293.026 230.814H293.067L300.216 232.107L300.294 232.132C304.435 233.431 308.374 235.726 311.928 238.912C315.436 242.099 318.525 246.077 321.063 250.677C323.323 254.739 325.24 259.591 326.766 265.13C327.979 269.621 328.903 274.247 329.529 278.958C329.967 282.176 330.276 285.425 330.455 288.69C330.455 288.915 330.48 289.14 330.489 289.371L331 293.026L330.852 292.983L330.9 293.245L328.431 292.814C323.657 291.98 311.91 289.424 305.794 283.638L305.621 283.513C301.562 280.557 297.94 276.592 294.942 271.819C291.903 266.961 289.517 261.403 287.895 255.404C287.433 253.737 287.057 252.027 286.77 250.287L286.504 248.384L286.36 247.759C285.82 245.47 285.383 243.139 285.05 240.777L264.158 212.162C262.318 209.981 260.177 208.329 257.862 207.304C255.546 206.278 253.104 205.899 250.68 206.191C248.256 206.482 245.899 207.437 243.75 209C241.601 210.562 239.702 212.7 238.168 215.286L238.282 215.433L238.346 215.558L238.487 215.711C238.578 215.817 238.681 215.936 238.763 216.045L244.391 223.753L251.413 232.944L253.715 236.025L261.681 247.16H261.596L280.675 273.762C282.235 275.936 283.109 278.862 283.109 281.91V348.381L282.196 348.575H282.128H327.902C328.309 348.577 328.712 348.69 329.087 348.905C329.462 349.121 329.803 349.436 330.089 349.832C330.376 350.228 330.603 350.697 330.756 351.213C330.91 351.73 330.988 352.282 330.986 352.839V356.476C330.985 357.598 330.659 358.672 330.08 359.466C329.501 360.259 328.716 360.706 327.897 360.709H61.4752C60.6561 360.706 59.8713 360.259 59.2921 359.466C58.7129 358.673 58.3864 357.598 58.384 356.476V352.839C58.3864 351.718 58.7129 350.643 59.2921 349.85C59.8713 349.057 60.6561 348.609 61.4752 348.606H104.258L104.32 348.109C107.68 328.699 121.674 325.343 121.674 325.343C121.731 325.19 121.79 325.031 121.843 324.887L121.856 324.846L121.911 324.64L121.961 324.306V284.628L121.934 284.606V283.357L121.856 282.982L121.756 282.751C121.738 282.71 121.713 282.669 121.694 282.629C118.132 282.214 114.614 281.271 111.2 279.817C110.965 279.67 110.737 279.503 110.516 279.317V279.502C110.413 279.452 110.315 279.402 110.213 279.358L93.9379 301.602C93.6847 306.204 92.9501 310.975 91.4604 315.149C90.1731 318.808 88.2748 322.001 85.9192 324.468C84.3231 326.084 82.5529 327.349 80.6722 328.217C79.7869 328.551 78.887 328.806 77.978 328.983V329.227C75.4503 329.955 72.528 330.229 69.138 329.892V307.473L69.0947 307.616V275.09L86.7929 250.852C82.9375 246.144 77.9142 236.534 78.8883 218.948C78.8883 218.948 67.9563 197.231 82.041 171.05L66.9252 152.477C65.8922 151.208 65.147 149.56 64.7785 147.728ZM296.201 246.903C297.344 250.753 298.81 254.406 300.572 257.788C303.437 263.287 307.084 267.937 311.294 271.457C313.77 273.504 316.413 275.149 319.167 276.359C318.9 275.256 318.599 274.197 318.314 273.234C317.164 269.299 315.685 265.559 313.906 262.09C311.077 256.534 307.423 251.857 303.184 248.366C300.722 246.376 298.085 244.823 295.337 243.742C295.606 244.86 295.912 245.932 296.201 246.903ZM158.279 126.515C157.996 124.715 157.741 123.64 157.741 123.64L157.428 124.931C156.404 129.187 155.021 133.265 153.308 137.084C151.695 140.642 149.824 143.969 147.724 147.013C145.653 149.996 143.426 152.769 141.06 155.308C138.717 157.844 136.269 160.197 133.79 162.459C131.118 164.893 128.401 167.226 125.7 169.595L124.402 170.738L124.242 170.879C119.58 174.999 114.907 179.127 110.434 183.638C105.919 188.187 101.598 193.139 97.759 198.744C95.5302 202.008 93.379 205.476 91.6452 209.269C91.6452 209.269 86.5488 221.788 90.5935 234.781C93.3584 214.424 116.901 189.89 140.837 170.547C160.257 154.854 159.367 134.044 158.279 126.515ZM228.543 348.603C228.561 348.437 228.586 348.272 228.607 348.106C231.274 332.691 240.645 327.405 244.391 325.877V292.301L222.767 288.459L228.81 296.735C230.362 298.867 231.234 301.755 231.234 304.766C231.234 307.776 230.362 310.664 228.81 312.796L202.666 348.603H228.543ZM193.564 348.603L218.43 314.549L220.426 311.618C221.286 310.364 221.757 308.702 221.74 306.981C221.724 305.26 221.221 303.616 220.337 302.393L216.477 297.007L205.493 281.698L205.292 281.454L204.836 281.164H185.351L187.176 283.488L187.149 283.579L193.01 290.914L199.311 298.928L203.435 304.58C203.607 304.804 203.745 305.072 203.841 305.37C203.937 305.668 203.988 305.989 203.993 306.315C203.997 306.64 203.954 306.963 203.866 307.266C203.778 307.568 203.647 307.843 203.481 308.076L191.191 324.909L191.169 324.946C190.747 325.615 190.322 326.271 189.889 326.933L189.661 327.268L182.856 336.587C182.83 336.587 182.808 336.625 182.783 336.644H179.858H179.81C175.704 336.956 170.94 338.365 168.233 342.961C167.302 344.545 166.435 346.485 166.435 348.584L193.564 348.603ZM158.813 343.114C159.356 340.967 160.124 338.939 161.094 337.096C167.439 326.534 179.258 326.655 179.258 326.655L193.197 307.569C193.24 307.508 193.281 307.443 193.32 307.376C194.328 305.764 193.363 304.052 193.363 304.052L191.912 302.065C191.818 301.905 191.718 301.753 191.611 301.608L189.786 299.15L176.655 281.173H158.811L158.813 343.114ZM112.895 249.272C112.895 249.4 112.895 249.796 112.895 249.796L112.914 250.568H112.939C113.113 254.401 114.042 258.097 115.626 261.266C117.21 264.434 119.39 266.957 121.936 268.567V260.444C121.936 258.921 122.378 257.46 123.164 256.383C123.951 255.306 125.017 254.701 126.129 254.701C127.241 254.701 128.308 255.306 129.094 256.383C129.88 257.46 130.322 258.921 130.322 260.444V292.783C130.247 292.701 130.174 292.62 130.094 292.533C130.094 295.344 130.094 298.156 130.094 300.987V324.821C130.094 326.593 130.135 328.377 130.094 330.133V334.538H129.113L129.054 334.653C125.664 335.138 115.117 337.531 114.579 348.556H150.683V243.27C150.66 242.93 150.66 242.588 150.683 242.248V241.789C150.668 240.249 151.095 238.762 151.871 237.646C152.439 236.863 153.163 236.329 153.953 236.11C154.742 235.892 155.561 236 156.306 236.42C157.051 236.841 157.688 237.555 158.136 238.472C158.584 239.389 158.823 240.467 158.822 241.57V270.001H198.813L179.085 242.976C177.809 241.233 177.615 238.268 178.793 236.347C180.161 234.132 182.589 234.16 184.051 236.162L206.565 266.998C212.597 275.256 220.531 277.018 222.078 277.308L250.108 281.767C250.447 281.82 250.777 281.959 251.08 282.176C252.905 282.816 253.361 287.125 253.361 287.125V334.691C249.971 335.175 239.425 337.568 238.886 348.594H274.976V288.515C274.979 284.218 273.751 280.092 271.554 277.024L246.688 242.345C243.426 237.887 240.095 233.519 236.81 229.089C235.102 226.786 233.412 224.457 231.739 222.103C230.24 219.985 228.787 217.817 227.22 215.792C224.436 212.179 221.396 208.956 218.145 206.17C214.965 203.465 211.586 201.226 208.064 199.49C204.435 197.719 200.686 196.443 196.874 195.682C196.384 195.582 195.889 195.488 195.394 195.407H195.318H160.894L160.741 195.432C157.525 196.148 154.414 197.566 151.527 199.634C150.074 200.688 148.68 201.888 147.356 203.224C145.855 204.73 144.335 206.2 142.794 207.635C141.076 209.253 139.342 210.841 137.613 212.431L137.467 212.565C131.711 217.854 125.937 223.166 120.686 229.386C119.201 231.096 117.852 233.016 116.66 235.113C115.43 237.082 114.468 239.338 113.822 241.773C113.506 242.961 113.268 244.186 113.112 245.432C112.924 246.694 112.851 247.984 112.895 249.272ZM107.023 261.244L106.907 260.422C105.86 253.408 105.899 246.122 107.564 239.296C109.029 233.279 111.636 228.074 114.896 223.609C116.76 221.105 118.732 218.754 120.8 216.57L120.946 216.414C115.863 221.832 126.296 210.703 121.51 215.811C126.971 210.022 132.877 204.795 138.592 199.743L138.71 199.637C144.087 194.879 149.535 190.174 154.597 184.794C156.007 183.311 157.361 181.731 158.653 180.061C160.109 177.811 161.433 175.409 162.614 172.875C168.196 160.234 165.652 148.681 165.652 148.681L165.372 149.584L164.231 152.536C161.619 158.742 158.356 164.39 154.547 169.298C150.881 174.081 146.816 178.252 142.632 182.135C138.224 186.228 133.678 190.018 129.22 194.007C124.829 197.928 120.506 202.005 116.406 206.482C111.935 211.369 107.703 216.72 104.021 222.728C103.528 223.532 103.048 224.352 102.579 225.187C91.9555 252.805 107.019 261.244 107.019 261.244H107.023ZM77.978 280.079V317.223C79.3787 317.223 80.6653 316.224 81.7558 315.102C82.6693 314.165 83.454 313.013 84.0736 311.7C85.2827 309.169 85.9511 306.207 86.3344 303.264C86.5181 301.828 86.6393 300.378 86.6971 298.922V298.856V294.851C86.7108 294.816 86.7222 294.785 86.7382 294.751L93.5432 285.434L93.7873 285.122C94.2709 284.528 94.75 283.941 95.2382 283.369L95.2656 283.338L102.137 273.931C97.0792 269.348 94.182 263.933 92.6033 260.031L77.978 280.079ZM84.9359 204.786C88.7593 191.352 100.973 180.773 100.973 180.773C101.618 180.079 102.267 179.393 102.919 178.714C104.147 177.443 105.383 176.193 106.64 174.984V175.009L107.493 174.172C111.643 170.11 115.934 166.292 120.239 162.574C121.516 161.472 122.803 160.388 124.09 159.31L124.388 159.053C129.832 154.483 135.327 149.874 140.129 144.079C144.101 139.29 147.612 133.538 149.453 126.655C149.801 125.353 150.086 124.022 150.306 122.669C151.992 109.488 145.018 101.29 145.018 101.29L145.064 102.046C145.38 106.737 145.07 111.468 144.151 116.008C143.3 120.001 141.953 123.765 140.17 127.133C138.377 130.484 136.301 133.534 133.986 136.219C131.61 138.976 129.117 141.539 126.519 143.892C123.125 147.016 119.632 149.946 116.117 152.821L114.691 153.986L114.645 154.023C109.22 158.444 103.734 162.827 98.7902 168.236C97.5857 169.551 96.4131 170.932 95.2861 172.375C94.0702 173.572 86.745 181.123 84.4614 191.955C84.482 191.964 83.4873 197.097 84.9314 204.795L84.9359 204.786ZM69.3593 119.582L71.9098 131.907L72.2223 133.422H72.544C73.0242 132.436 73.6182 131.564 74.3029 130.839C75.6902 129.364 77.3968 128.565 79.1529 128.567C79.2259 128.567 79.2966 128.567 79.3673 128.567C81.434 128.642 83.3977 129.819 84.8401 131.848C86.2825 133.876 87.0896 136.596 87.0895 139.427C87.0895 139.79 87.0758 140.149 87.0507 140.502C86.9775 141.504 86.8025 142.487 86.5306 143.423C86.5306 143.423 86.5169 143.46 86.5055 143.485V143.51L86.4781 143.579L86.4598 143.62C86.4598 143.648 86.437 143.676 86.4233 143.704L86.4028 143.754L86.3481 143.876L86.3344 143.91L86.2522 144.088C86.2431 144.105 86.2347 144.123 86.2271 144.142L86.1541 144.288L86.1176 144.363C86.0948 144.413 86.0697 144.463 86.0424 144.513L86.0013 144.595L85.91 144.766L85.8713 144.835C85.8256 144.919 85.78 145.004 85.7298 145.088L85.7024 145.135L85.5724 145.354C85.5564 145.385 85.5359 145.413 85.5176 145.444C85.4994 145.476 85.4401 145.569 85.4013 145.632L85.3374 145.732C85.2933 145.794 85.25 145.86 85.2074 145.929L85.1458 146.019L84.9496 146.294C84.8812 146.391 84.8082 146.488 84.7215 146.582L84.6507 146.672C84.5983 146.738 84.5435 146.806 84.4865 146.872L84.3998 146.975C84.3451 147.041 84.2903 147.106 84.2333 147.169L84.1443 147.266L83.9344 147.491L83.8774 147.55C83.7862 147.641 83.6926 147.731 83.5945 147.822L83.5192 147.891C83.4462 147.956 83.3732 148.022 83.2911 148.084L83.1839 148.175C83.1154 148.231 83.0448 148.287 82.9718 148.34L82.86 148.428C82.7809 148.488 82.7048 148.545 82.6318 148.597L82.536 148.662C82.4243 148.737 82.3079 148.809 82.1893 148.881L82.1277 148.912C82.0296 148.968 81.9292 149.025 81.8265 149.075L81.7011 149.137L81.4433 149.253L81.3041 149.312L81.0304 149.412L80.9003 149.459C80.7726 149.5 80.6425 149.537 80.5079 149.571H80.4852C79.462 149.82 78.4149 149.82 77.3917 149.571C77.347 149.57 77.303 149.587 77.2653 149.62C77.2276 149.653 77.1978 149.701 77.1795 149.756C77.1613 149.812 77.1555 149.874 77.1628 149.935C77.1701 149.995 77.1902 150.051 77.2206 150.096L79.8373 152.977L87.8218 161.765L92.1288 158.232C92.3067 158.154 92.4824 158.069 92.6558 157.966C93.2314 157.59 93.7772 157.133 94.2847 156.604C94.7706 156.145 95.2656 155.698 95.7607 155.251L99.5133 152.174L99.4654 152.143C100.501 151.327 101.56 150.562 102.577 149.712L102.73 149.59C103.597 148.909 104.427 148.128 105.276 147.403C106.125 146.678 106.975 145.96 107.831 145.244C109.46 143.882 111.096 142.534 112.74 141.199C112.74 141.199 115.083 139.277 115.587 138.871L115.957 138.559C117.533 137.271 119.151 135.937 120.777 134.55C122.237 133.197 123.779 132.023 125.112 130.426C127.557 127.912 129.786 125.027 131.757 121.825C134.415 117.608 136.678 112.852 138.094 107.61C139.015 104.169 139.549 100.557 139.678 96.8971H105.547C105.046 96.8954 104.557 97.106 104.147 97.5L104.347 96.8752L91.6384 115.014C91.0195 115.901 90.276 116.607 89.4528 117.091C88.6295 117.574 87.7434 117.824 86.8477 117.826H70.3312C70.1728 117.819 70.0155 117.864 69.8725 117.957C69.7295 118.051 69.6049 118.19 69.5093 118.363C69.4136 118.536 69.3496 118.737 69.3228 118.951C69.2959 119.165 69.3069 119.385 69.3548 119.591L69.3593 119.582Z" fill="#D28721"/>
</g>
</g>
</svg>
