<svg version="1.2" baseProfile="tiny-ps" xmlns="http://www.w3.org/2000/svg" viewBox="0 0 18 18" width="18" height="18">
	<title>image</title>
	<defs>
		<clipPath clipPathUnits="userSpaceOnUse" id="cp1">
			<path d="M0 0L18 0L18 18L0 18L0 0Z" />
		</clipPath>
	</defs>
	<style>
		tspan { white-space:pre }
		.shp0 { fill: #000000 } 
	</style>
	<g id="Clip-Path" clip-path="url(#cp1)">
		<g id="Layer" style="opacity: 0.502">
			<path id="Layer" class="shp0" d="M17.84 3.58L12.38 9L17.84 14.42C17.94 14.22 18 13.99 18 13.75L18 4.25C18 4.01 17.94 3.78 17.84 3.58Z" />
			<path id="Layer" class="shp0" d="M16.42 2.67L1.58 2.67C1.34 2.67 1.11 2.73 0.9 2.83L7.88 9.77C8.5 10.39 9.5 10.39 10.12 9.77L17.1 2.83C16.89 2.73 16.66 2.67 16.42 2.67Z" />
			<path id="Layer" class="shp0" d="M0.16 3.58C0.06 3.78 0 4.01 0 4.25L0 13.75C0 13.99 0.06 14.22 0.16 14.42L5.62 9L0.16 3.58Z" />
			<path id="Layer" class="shp0" d="M11.64 9.75L10.86 10.52C9.84 11.55 8.16 11.55 7.14 10.52L6.36 9.75L0.9 15.17C1.11 15.27 1.34 15.33 1.58 15.33L16.42 15.33C16.66 15.33 16.89 15.27 17.1 15.17L11.64 9.75Z" />
		</g>
	</g>
</svg>