<svg width="97" height="97" viewBox="0 0 97 97" fill="none" xmlns="http://www.w3.org/2000/svg">
<path d="M42.2426 41.2973L42.2704 41.2705L42.2407 41.292C42.2407 41.292 42.2422 41.2954 42.2426 41.2973Z" fill="#F5C286"/>
<path d="M60.5429 22.2115H67.6972C67.8374 22.2113 67.9746 22.1709 68.0925 22.095C68.2104 22.019 68.3039 21.9108 68.362 21.7832L71.0272 15.9199L65.9272 17.3452L64.1205 14.542L62.3129 17.3452L57.2129 15.9199L59.8785 21.7832C59.9366 21.9108 60.0301 22.0189 60.1479 22.0948C60.2656 22.1707 60.4027 22.2112 60.5429 22.2115ZM62.8869 19.1698L64.1205 17.392L65.3531 19.1698L68.1535 18.7309L67.5186 20.131C67.4328 20.3183 67.2951 20.4771 67.122 20.5887C66.9488 20.7002 66.7473 20.7599 66.5413 20.7606H61.7002C61.4935 20.7605 61.2913 20.701 61.1176 20.5892C60.9438 20.4774 60.8058 20.3181 60.7201 20.1301L60.0847 18.7299L62.8869 19.1698Z" fill="#F5C286"/>
<path d="M66.7655 29.5019C66.8019 29.5464 66.8475 29.5824 66.8992 29.6074C66.9509 29.6324 67.0074 29.6458 67.0648 29.6468H68.9527C69.1221 29.6468 69.2033 29.4024 69.0787 29.2677L68.1396 28.3176C68.0731 28.2428 67.9917 28.1828 67.9007 28.1412C67.8096 28.0997 67.711 28.0775 67.6109 28.0762H65.7689C65.6424 28.0762 65.5792 28.2558 65.6685 28.3605L66.7655 29.5019Z" fill="#F5C286"/>
<path d="M20.2651 66.5748H76.652C76.8253 66.5742 76.9914 66.5052 77.114 66.3826C77.2366 66.26 77.3057 66.0939 77.3062 65.9205V65.36C77.3057 65.1866 77.2366 65.0205 77.114 64.898C76.9914 64.7754 76.8253 64.7063 76.652 64.7058H67.5973C67.5929 64.6797 67.5886 64.6546 67.5842 64.629C66.8731 61.6288 63.9115 61.1107 63.9115 61.1107C63.8994 61.0871 63.8869 61.0625 63.8757 61.0403L63.8728 61.034L63.8613 61.0021L63.8506 60.95V54.8182C63.8523 54.8168 63.8543 54.8156 63.8564 54.8149V54.6217L63.8728 54.5643L63.8941 54.5285C63.898 54.5223 63.9033 54.516 63.9071 54.5097C64.661 54.4456 65.4056 54.2999 66.1281 54.0752C66.178 54.0524 66.2263 54.0264 66.2729 53.9975V54.0264C66.2947 54.0187 66.3154 54.011 66.3371 54.0042L69.7815 57.4418C69.8351 58.153 69.9906 58.8903 70.3059 59.5353C70.5783 60.1008 70.9801 60.5942 71.4786 60.9756C71.8164 61.2252 72.1911 61.4207 72.5891 61.5549C72.7765 61.6064 72.9669 61.6459 73.1593 61.6732V61.7109C73.6943 61.8229 74.3127 61.8654 75.0302 61.8137V58.3491L75.0394 58.3713V53.3432L71.2937 49.5981C72.1097 48.87 73.1728 47.3848 72.9667 44.6671C72.9667 44.6671 75.2803 41.311 72.2994 37.2655L75.4985 34.3952C75.7169 34.1989 75.8743 33.944 75.9519 33.6608L76.9151 30.1363L77.3496 28.4547C77.3937 28.2843 77.3982 28.1061 77.3628 27.9338C77.3273 27.7614 77.2529 27.5994 77.1452 27.4603C77.0375 27.3211 76.8994 27.2085 76.7414 27.1309C76.5834 27.0534 76.4098 27.0131 76.2339 27.013H72.3274C72.1333 27.013 71.9413 26.9729 71.7635 26.8951C71.5857 26.8173 71.4259 26.7036 71.2942 26.5611L69.2046 24.2991L69.2007 24.2933C69.118 24.173 69.0181 24.0655 68.9043 23.9742C68.6313 23.7524 68.2903 23.6315 67.9386 23.6318H60.2682C59.8873 23.6857 59.5129 23.7777 59.1504 23.9066C56.8667 24.8944 56.2396 27.0603 56.2396 27.0603C54.3682 27.8849 54.2731 31.057 54.2731 31.057C54.2731 31.057 52.9946 31.8035 52.6484 34.2851C52.6484 34.2851 52.6484 34.3001 52.6436 34.3271C52.6291 34.4329 52.616 34.541 52.6054 34.653C52.5113 35.6423 52.6407 36.4472 52.855 37.083C53.0549 37.7942 53.405 38.5073 54.0056 39.0404H55.5955L50.3468 39.0515C50.1537 39.0573 49.9408 39.0587 49.7008 39.0548H49.4662H49.3957C46.0406 39.0746 43.6642 40.2812 42.2717 41.2758L42.2437 41.3028C42.2437 41.3028 42.2437 41.2994 42.2437 41.2975L42.1844 41.3405C42.1844 41.3439 42.1844 41.3477 42.181 41.3516C41.6872 41.7234 41.224 42.1342 40.7958 42.5799C39.9749 41.6368 38.8785 40.9756 37.6613 40.6897C36.7997 40.4886 35.9045 40.4777 35.0382 40.6578C34.1664 40.8409 33.346 41.2146 32.6357 41.7523C32.5469 41.8199 32.4581 41.8909 32.3731 41.9643L32.3634 41.9715L27.7622 46.4723C27.7246 46.4791 27.6864 46.4878 27.6459 46.4965H27.6372L26.124 46.6959L26.1076 46.6997C25.2313 46.9008 24.3976 47.2557 23.6453 47.7479C22.9025 48.2423 22.249 48.8591 21.7125 49.572C21.2341 50.1996 20.8285 50.9494 20.5055 51.805C20.2488 52.4991 20.0532 53.2143 19.9208 53.9424C19.828 54.4396 19.7626 54.9415 19.7248 55.4459C19.7248 55.4811 19.7195 55.5159 19.7176 55.5511L19.6123 56.1146L19.6437 56.1078L19.6336 56.1484L20.156 56.0818C21.1665 55.9528 23.6525 55.5579 24.9469 54.6637L24.9836 54.6439C25.8418 54.1875 26.6073 53.5749 27.2408 52.8377C27.8841 52.0872 28.389 51.2285 28.7322 50.3015C28.8299 50.0438 28.9094 49.7795 28.9702 49.5107L29.0267 49.2166L29.0571 49.1201C29.1714 48.7663 29.2639 48.406 29.3343 48.041L33.7559 43.6194C34.3498 43.1108 35.0832 42.7931 35.8605 42.7078C35.9972 42.6929 36.1347 42.6855 36.2723 42.6856C36.899 42.6851 37.5164 42.837 38.0713 43.1283C38.5268 43.3713 38.9296 43.7021 39.2566 44.1017L39.2324 44.1239L39.2189 44.1437L39.189 44.1674C39.1697 44.1838 39.1479 44.2021 39.1306 44.2185L37.9394 45.4101L36.4534 46.8306L35.9662 47.3061L34.2802 49.0274H34.2981L30.2603 53.1385C29.9301 53.4745 29.7451 53.9267 29.7451 54.3977V64.6701L29.9383 64.7H29.9527V64.7024H20.2651C20.0913 64.7032 19.925 64.7729 19.8026 64.8961C19.6802 65.0194 19.6118 65.1863 19.6123 65.36V65.922C19.6131 66.0949 19.6821 66.2605 19.8043 66.3827C19.9266 66.505 20.0922 66.574 20.2651 66.5748ZM26.9762 48.9878C26.7344 49.5825 26.424 50.1468 26.0511 50.6694C25.4448 51.5194 24.6729 52.238 23.7819 52.7822C23.2577 53.0984 22.6986 53.3526 22.1157 53.5397C22.1722 53.3688 22.2359 53.2052 22.2963 53.0569C22.5397 52.4486 22.8527 51.8706 23.2291 51.3342C23.8281 50.4758 24.6013 49.7533 25.4983 49.2137C26.0195 48.9063 26.5776 48.6662 27.1592 48.4992C27.1003 48.672 27.0356 48.8371 26.9743 48.9878H26.9762ZM41.2907 64.7043C41.2868 64.6783 41.2815 64.6532 41.2771 64.6276C40.7127 62.2454 38.7293 61.4284 37.9366 61.1923V56.0035L42.5131 55.4097L41.2342 56.6887C40.9056 57.018 40.7211 57.4643 40.7211 57.9295C40.7211 58.3947 40.9056 58.841 41.2342 59.1703L46.7672 64.7043H41.2907ZM48.6937 64.7043L43.431 59.4417L43.0085 58.9883C42.8266 58.7945 42.7269 58.5377 42.7304 58.2719C42.7339 58.0061 42.8403 57.752 43.0273 57.563L43.8443 56.7307L46.169 54.3649L46.2115 54.3272L46.3081 54.2823H50.4318L50.0455 54.641L50.0513 54.655L48.811 55.7887L47.4774 57.0271L46.6045 57.901C46.568 57.9356 46.5388 57.9772 46.5186 58.0232C46.4983 58.0692 46.4874 58.1188 46.4865 58.1691C46.4856 58.2194 46.4947 58.2694 46.5133 58.3161C46.5319 58.3628 46.5596 58.4054 46.5949 58.4413L49.1958 61.0422L49.2006 61.048C49.2899 61.1513 49.3797 61.2532 49.4715 61.3551L49.5197 61.4072L50.9595 62.8474C50.9648 62.8474 50.9696 62.8532 50.975 62.8561H51.5939H51.6041C52.4731 62.9044 53.4812 63.1217 54.0543 63.8324C54.2518 64.0772 54.4348 64.3765 54.4348 64.7014L48.6937 64.7043ZM56.0484 63.8555C55.9335 63.5239 55.7708 63.2108 55.5656 62.9261C54.2228 61.2937 51.7214 61.3121 51.7214 61.3121L48.7714 58.3631C48.7622 58.3535 48.7535 58.3436 48.7453 58.3331C48.5319 58.0835 48.7361 57.8194 48.7361 57.8194L49.0432 57.5123C49.0631 57.4877 49.0844 57.4642 49.1069 57.4418L49.4932 57.0619L52.2723 54.2838H56.0488L56.0484 63.8555ZM56.2545 64.7043V64.7019V64.7043ZM73.1593 54.1148V59.8559C72.8629 59.8559 72.5905 59.7009 72.3598 59.5281C72.1663 59.3832 72.0002 59.205 71.8692 59.0018C71.6133 58.6112 71.4719 58.153 71.3908 57.6982C71.3519 57.4762 71.3262 57.2521 71.314 57.0271V57.017V56.398C71.3111 56.3927 71.3087 56.3879 71.3053 56.3826L69.8651 54.9423L69.8134 54.894C69.711 54.8028 69.6096 54.712 69.5063 54.6232L69.5005 54.6188L68.0463 53.1646C69.1167 52.4568 69.7299 51.6196 70.064 51.0166L73.1593 54.1148ZM60.1112 25.8108H67.3284C67.4344 25.8105 67.538 25.8431 67.6248 25.904L67.5828 25.8074L70.2721 28.6106C70.4031 28.7476 70.5604 28.8568 70.7346 28.9314C70.9089 29.0061 71.0964 29.0448 71.286 29.0451H74.7816C74.814 29.0452 74.846 29.0527 74.8751 29.0672C74.9042 29.0817 74.9295 29.1028 74.949 29.1287C74.9686 29.1546 74.9818 29.1847 74.9878 29.2166C74.9938 29.2485 74.9922 29.2814 74.9834 29.3126L74.4436 31.2173L74.3774 31.4515H74.3094C74.1557 31.2209 73.9476 31.0317 73.7033 30.9008C73.4591 30.7699 73.1863 30.7014 72.9092 30.7012H72.8638C72.4264 30.7129 72.0108 30.8949 71.7055 31.2085C71.4003 31.522 71.2295 31.9423 71.2295 32.3799C71.2295 32.436 71.2324 32.4915 71.2377 32.546C71.2533 32.7009 71.2903 32.8528 71.3478 32.9975C71.3478 32.9975 71.3507 33.0033 71.3531 33.0071V33.011C71.3552 33.0144 71.3572 33.018 71.3589 33.0216L71.3627 33.0279L71.3705 33.0409L71.3748 33.0482C71.3782 33.0544 71.3821 33.0607 71.3864 33.0675L71.3893 33.0728L71.4067 33.1003C71.4087 33.1028 71.4105 33.1056 71.412 33.1085L71.4274 33.1312L71.4352 33.1428L71.4511 33.166L71.4598 33.178C71.4661 33.1867 71.4723 33.1959 71.4791 33.2046L71.4873 33.2157L71.5172 33.2548L71.523 33.2616L71.5506 33.2958L71.5621 33.3098C71.5699 33.319 71.5786 33.3287 71.5868 33.3388L71.6003 33.3538L71.6278 33.3842L71.6408 33.3982C71.6544 33.4127 71.6679 33.4267 71.6824 33.4412C71.6968 33.4561 71.7123 33.4706 71.7306 33.4856L71.7456 33.4991C71.7567 33.5097 71.7683 33.5203 71.7804 33.5305L71.7987 33.5464L71.834 33.5764L71.8528 33.5913L71.8972 33.6256L71.9093 33.6348C71.9286 33.6493 71.9484 33.6633 71.9692 33.6773L71.9851 33.6879C72.0005 33.698 72.016 33.7082 72.0334 33.7178L72.0561 33.7318C72.0705 33.7405 72.0855 33.7492 72.101 33.7574L72.1246 33.7709L72.1729 33.797L72.1932 33.8071C72.2168 33.8187 72.2415 33.8298 72.2666 33.8405L72.2796 33.8458C72.3004 33.8545 72.3216 33.8631 72.3433 33.8709L72.3699 33.88L72.4244 33.8984L72.4539 33.9076L72.5118 33.923L72.5394 33.9298C72.5664 33.9365 72.5939 33.9423 72.6224 33.9476H72.6272C72.8438 33.9861 73.0654 33.9861 73.2819 33.9476C73.2914 33.9475 73.3007 33.9501 73.3087 33.9552C73.3167 33.9603 73.323 33.9676 73.3268 33.9762C73.3307 33.9849 73.3319 33.9945 73.3304 34.0038C73.3288 34.0131 73.3246 34.0218 73.3181 34.0287L72.7644 34.4739L71.0745 35.8316L70.163 35.286C70.1253 35.2739 70.0881 35.2609 70.0514 35.245C69.9297 35.1866 69.8142 35.1161 69.7067 35.0345C69.6039 34.9635 69.4991 34.8944 69.3943 34.8254L68.6001 34.3498L68.6102 34.3445C68.391 34.2185 68.167 34.1007 67.9517 33.9694L67.9193 33.9501C67.7358 33.8448 67.5601 33.7246 67.3805 33.6121C67.2009 33.4996 67.0208 33.389 66.8397 33.2785C66.495 33.068 66.1479 32.8603 65.8007 32.6508C65.8007 32.6508 65.3049 32.3539 65.1982 32.2911L65.12 32.2428C64.7863 32.0434 64.444 31.8373 64.0998 31.6229C63.7908 31.4143 63.4644 31.2328 63.1824 30.9861C62.6649 30.5975 62.1931 30.1516 61.776 29.6569C61.2135 29.0046 60.7346 28.2702 60.4347 27.4601C60.2399 26.9282 60.1269 26.3698 60.0997 25.804L60.1112 25.8108ZM58.9689 26.4867L58.9592 26.6036C58.8925 27.3286 58.9579 28.0596 59.1524 28.7613C59.3326 29.3784 59.6176 29.9599 59.9949 30.4806C60.3744 30.9984 60.8138 31.4697 61.3038 31.8846C61.8065 32.3108 62.3342 32.7066 62.884 33.0699C63.6025 33.5527 64.3417 34.0056 65.0857 34.4498C65.1856 34.5101 65.2865 34.57 65.3874 34.6299L65.3971 34.6356C66.5452 35.3188 67.7064 35.9967 68.7527 36.832C69.0076 37.0357 69.2557 37.2491 69.4943 37.4722C69.7516 37.6566 71.3019 38.8241 71.7852 40.498C71.7852 40.498 71.9957 41.2912 71.6886 42.4809C70.8794 40.4048 68.2945 38.7695 68.2945 38.7695C68.158 38.6623 68.0207 38.5563 67.8826 38.4513C67.6229 38.2548 67.3612 38.0617 67.0951 37.872V37.8758L66.9146 37.7464C66.0363 37.1188 65.1282 36.5292 64.2171 35.9542C63.9467 35.7843 63.6744 35.6162 63.4026 35.4502L63.3389 35.4106C62.1869 34.7037 61.0238 33.9921 60.0074 33.0964C59.1669 32.3558 58.4238 31.4669 58.0342 30.4038C57.9608 30.2025 57.9005 29.9967 57.8536 29.7877C57.4934 27.7531 58.9689 26.4862 58.9689 26.4862V26.4867ZM56.1642 30.3835C56.2241 30.1054 56.2782 29.9393 56.2782 29.9393L56.3443 30.1382C56.5612 30.7961 56.8538 31.4266 57.2163 32.0169C57.5576 32.5667 57.9536 33.0806 58.3982 33.5508C58.8363 34.0122 59.3077 34.4408 59.8085 34.8331C60.3044 35.2252 60.8224 35.5887 61.3473 35.9383C61.9126 36.3144 62.4877 36.6746 63.0593 37.041L63.334 37.2177L63.3678 37.2395C64.3547 37.8763 65.3435 38.5141 66.2903 39.2113C67.2458 39.9143 68.1602 40.679 68.9728 41.5457C69.445 42.0502 69.8998 42.5861 70.2668 43.1723C70.2668 43.1723 71.3454 45.1069 70.4893 47.1149C69.9042 43.9689 64.9215 40.1774 59.8558 37.1878C55.7456 34.7621 55.9339 31.5466 56.1642 30.383V30.3835ZM55.2469 37.5499C54.0654 35.5964 54.6038 33.811 54.6038 33.811L54.6632 33.9505L54.9046 34.4068C55.4574 35.3658 56.1479 36.2386 56.9541 36.9971C57.73 37.7363 58.5904 38.3808 59.4759 38.981C60.4087 39.6135 61.3709 40.1991 62.3143 40.8157C63.2437 41.4216 64.1587 42.0512 65.0268 42.7435C65.9726 43.4987 66.8682 44.3257 67.6475 45.2542C67.7518 45.3787 67.8535 45.5056 67.9526 45.6346C70.1977 49.9027 67.0097 51.2063 67.0097 51.2063L67.0343 51.0793C67.2559 49.9959 67.2477 48.87 66.8953 47.815C66.5853 46.8846 66.0334 46.0803 65.3435 45.3908C64.9491 45.0036 64.5318 44.6404 64.094 44.303L64.0631 44.2784C65.1388 45.1161 62.9309 43.3963 63.9438 44.1857C62.788 43.291 61.5384 42.4833 60.3285 41.7021L60.3034 41.6857C59.1654 40.9504 58.0125 40.2237 56.9411 39.3923C56.6442 39.162 56.3554 38.9197 56.0826 38.6609C55.7757 38.313 55.4966 37.9415 55.2479 37.5499H55.2469ZM31.4654 64.7019V55.4174C31.4646 54.7534 31.7247 54.1157 32.1896 53.6416L37.4523 48.2824C38.1427 47.5934 38.8476 46.9184 39.5429 46.2338C39.9043 45.8781 40.2621 45.5181 40.6162 45.1537C40.9334 44.8264 41.2409 44.4918 41.5726 44.179C42.1616 43.6204 42.805 43.1222 43.4933 42.6919C44.1663 42.2739 44.8814 41.9279 45.6268 41.6596C46.3948 41.3857 47.1881 41.1885 47.995 41.0711C48.0988 41.0556 48.2036 41.0411 48.3084 41.0286H48.3243H55.6109L55.6433 41.0324C56.3239 41.1431 56.9823 41.3623 57.5934 41.6818C57.9007 41.8447 58.1957 42.03 58.476 42.2361C58.7936 42.4693 59.1162 42.6957 59.4416 42.9183C59.8051 43.1684 60.1721 43.4137 60.5381 43.6594L60.569 43.6802C61.7871 44.4976 63.0091 45.3184 64.1205 46.2797C64.435 46.5438 64.7207 46.8404 64.9727 47.1647C65.233 47.469 65.4364 47.8177 65.5733 48.194C65.6401 48.3776 65.6904 48.5668 65.7235 48.7594C65.7644 48.9552 65.7806 49.1554 65.7718 49.3552C65.7718 49.3745 65.7718 49.4363 65.7718 49.4363L65.7679 49.5556H65.7626C65.7256 50.1478 65.529 50.7191 65.1938 51.2087C64.8586 51.6984 64.3971 52.0883 63.8584 52.3371V51.0817C63.8584 50.8464 63.7649 50.6207 63.5984 50.4542C63.432 50.2878 63.2063 50.1943 62.971 50.1943C62.7356 50.1943 62.5099 50.2878 62.3435 50.4542C62.177 50.6207 62.0835 50.8464 62.0835 51.0817V56.0793C62.0995 56.0668 62.1149 56.0542 62.1318 56.0407C62.1318 56.4753 62.1318 56.9098 62.1318 57.3443V61.0277C62.1318 61.3019 62.1231 61.5771 62.1318 61.8514V62.5322H62.3394L62.352 62.55C63.0694 62.6249 65.3015 62.9947 65.4154 64.6985H57.772C57.772 64.6985 57.772 64.6985 57.772 64.6961V48.4253C57.7768 48.3728 57.7768 48.3199 57.772 48.2674V48.1964C57.7751 47.9583 57.6848 47.7285 57.5205 47.5562C57.4004 47.4352 57.2471 47.3526 57.0799 47.3188C56.9128 47.2851 56.7394 47.3018 56.5818 47.3668C56.4242 47.4317 56.2894 47.5421 56.1946 47.6838C56.0998 47.8255 56.0492 47.9922 56.0493 48.1626V52.5563H47.5856L51.761 48.3799C52.0309 48.1105 52.0719 47.6523 51.8228 47.3554C51.5331 47.0131 51.0194 47.0174 50.7099 47.3269L45.945 52.0918C44.6684 53.3683 42.9892 53.6406 42.6619 53.6851L36.7295 54.374C36.6577 54.3823 36.5879 54.4037 36.5238 54.4373C36.1376 54.5363 36.041 55.2021 36.041 55.2021V62.5529C36.7585 62.6278 38.9905 62.9976 39.1045 64.7014H31.4664C31.4666 64.7006 31.4666 64.6998 31.4664 64.699L31.4654 64.7019Z" fill="#F5C286"/>
<path d="M13.88 72.4404C12.686 71.3671 11.0232 70.7988 9.07259 70.7988H1.94189V72.7431H3.64092V80.8543H1.94189V82.7986H9.07259C11.0232 82.7986 12.6855 82.2313 13.88 81.157C15.0745 80.0828 15.7113 78.573 15.7113 76.7977C15.7113 75.0225 15.0778 73.5171 13.88 72.4404ZM8.93064 80.8553H6.09893V72.7441H8.93064C11.5345 72.7441 13.2171 74.3373 13.2171 76.7997C13.2171 79.262 11.5345 80.8553 8.93064 80.8553Z" fill="#F5C286"/>
<path d="M53.9779 70.8027H51.4089L46.9269 80.8584H45.9482V82.8027H48.5468L49.6461 80.1424H55.6871L56.7869 82.8027H59.4559V80.8584H58.4744L53.9779 70.8027ZM50.3974 78.3752L52.6758 72.874L54.9542 78.3752H50.3974Z" fill="#F5C286"/>
<path d="M88.304 80.9115V77.624H94.0678V75.8038H88.304V72.6939H94.8302V70.8027H84.1909V72.747H85.8629V80.8584H84.1909V82.8027H95.061V80.9115H88.304Z" fill="#F5C286"/>
<path d="M75.9214 72.7205H77.5905V72.7297H77.6045V80.9115H75.9214V82.8027H81.7268V80.9115H80.0495V72.7205H81.7268V70.8027H75.9214V72.7205Z" fill="#F5C286"/>
<path d="M70.9424 78.9251L71.1766 78.8247C72.7424 78.1536 73.6047 76.8292 73.6047 75.0959C73.6047 72.4448 71.6184 70.7988 68.4207 70.7988H61.5947V72.7431H63.2541V80.8545H61.5947V82.7988H65.7126V79.3408H68.6708L71.0651 82.7988H73.8002V80.8545H72.2885L70.9424 78.9251ZM68.2609 77.4665H65.7126V72.7248H68.2609C70.0985 72.7248 71.1095 73.5668 71.1095 75.0959C71.1105 76.6013 70.0719 77.4656 68.2609 77.4656V77.4665Z" fill="#F5C286"/>
<path d="M24.8868 70.8027H22.3163L17.8343 80.8584H16.8311V82.8027H19.4556L20.5555 80.1424H26.596L27.6958 82.8027H30.3387V80.8584H29.3832L24.8868 70.8027ZM21.3063 78.3752L23.5847 72.874L25.863 78.3752H21.3063Z" fill="#F5C286"/>
<path d="M38.3743 76.1181L41.5073 72.747H43.5544V70.8027H40.6865L34.8928 76.9142V70.8027H32.4517V82.8027H34.8928V79.7875L36.7796 77.8205L40.8381 82.8027H43.7959V80.8584H42.1248L38.3743 76.1181Z" fill="#F5C286"/>
</svg>
