<svg width="20" height="20" viewBox="0 0 20 20" fill="none" xmlns="http://www.w3.org/2000/svg">
<path d="M3.87675 0H5.07675L5.90008 3.085L6.66341 0H7.87508L6.48758 4.5875V7.71833H5.29508V4.5875L3.87675 0V0ZM9.37175 1.9775C8.43925 1.9775 7.82092 2.59417 7.82092 3.50667V6.2975C7.82092 7.30083 8.34508 7.82333 9.37175 7.82333C10.2234 7.82333 10.8934 7.25417 10.8934 6.2975V3.50667C10.8934 2.61583 10.2292 1.9775 9.37175 1.9775ZM9.81425 6.25C9.81425 6.56 9.65591 6.78833 9.37091 6.78833C9.07841 6.78833 8.90925 6.54917 8.90925 6.25V3.60083C8.90925 3.28917 9.05258 3.05833 9.35008 3.05833C9.67508 3.05833 9.81425 3.2825 9.81425 3.60083V6.25ZM13.7551 2.025V6.34667C13.6259 6.50833 13.3384 6.77333 13.1326 6.77333C12.9067 6.77333 12.8509 6.61833 12.8509 6.39V2.025H11.7926V6.78333C11.7926 7.34583 11.9642 7.8 12.5317 7.8C12.8517 7.8 13.2967 7.63333 13.7551 7.08917V7.7175H14.8134V2.025H13.7551ZM15.5909 13.5733C15.2176 13.5733 15.1401 13.8358 15.1401 14.2092V14.7583H16.0309V14.2083C16.0317 13.8417 15.9542 13.5733 15.5909 13.5733ZM11.6717 13.6067C11.6017 13.6425 11.5326 13.6975 11.4634 13.7717V17.1508C11.5459 17.2392 11.6251 17.3025 11.7026 17.3417C11.8667 17.425 12.1067 17.4308 12.2184 17.2858C12.2767 17.2092 12.3059 17.085 12.3059 16.9117V14.1125C12.3059 13.9292 12.2701 13.7908 12.1984 13.6958C12.0759 13.535 11.8484 13.5175 11.6717 13.6067ZM15.6942 9.2775C13.5242 9.13 6.47258 9.13 4.30591 9.2775C1.96091 9.4375 1.68425 10.8542 1.66675 14.5833C1.68425 18.3058 1.95841 19.7292 4.30591 19.8892C6.47258 20.0367 13.5242 20.0367 15.6942 19.8892C18.0392 19.7292 18.3159 18.3117 18.3334 14.5833C18.3159 10.8608 18.0417 9.4375 15.6942 9.2775ZM5.42425 18.1825H4.28841V11.8992H3.11341V10.8325H6.59841V11.8992H5.42341V18.1825H5.42425ZM9.46258 18.1825H8.45425V17.5842C8.26842 17.805 8.07508 17.9733 7.87425 18.0883C7.33092 18.4 6.58508 18.3925 6.58508 17.2925V12.7608H7.59258V16.9175C7.59258 17.1358 7.64508 17.2825 7.86091 17.2825C8.05758 17.2825 8.33091 17.03 8.45341 16.8767V12.7608H9.46175V18.1825H9.46258ZM13.3434 17.0592C13.3434 17.73 13.0926 18.2517 12.4217 18.2517C12.0526 18.2517 11.7451 18.1167 11.4642 17.7658V18.1825H10.4467V10.8325H11.4642V13.1992C11.6917 12.9217 12.0009 12.6925 12.3609 12.6925C13.0992 12.6925 13.3442 13.3167 13.3442 14.0517V17.0592H13.3434ZM17.0692 15.5992H15.1409V16.6225C15.1409 17.0292 15.1759 17.3808 15.5809 17.3808C16.0067 17.3808 16.0317 17.0942 16.0317 16.6225V16.2458H17.0692V16.6533C17.0692 17.6975 16.6209 18.3308 15.5584 18.3308C14.5959 18.3308 14.1034 17.6292 14.1034 16.6533V14.2192C14.1034 13.2783 14.7251 12.6242 15.6342 12.6242C16.6017 12.6242 17.0684 13.2392 17.0684 14.2192V15.5992H17.0692Z" fill="white"/>
</svg>
